<svg width="66" height="51" viewBox="0 0 66 51" fill="none" xmlns="http://www.w3.org/2000/svg">
<path d="M49.5875 22.3602C49.0476 20.4787 47.9975 19.0772 46.1981 18.3277C44.3717 17.5665 42.6468 17.858 41.0003 18.8651C39.3358 14.9524 36.5287 12.8756 32.5635 12.5438C32.53 12.5725 32.4979 12.6011 32.4658 12.6323C32.2498 12.8379 31.9966 12.968 31.7344 13.0279C31.5198 13.1489 31.2987 13.2608 31.0751 13.3649C31.0635 13.4117 31.0519 13.4573 31.0365 13.5028C31.2177 13.456 31.4105 13.4326 31.6136 13.4195C31.737 13.4117 31.8591 13.4065 31.9825 13.4039C35.7163 13.3285 38.9939 15.7071 40.2265 19.3856C40.4939 20.1833 40.6172 20.2223 41.2805 19.7253C41.2972 19.7135 41.3126 19.6992 41.3293 19.6875C43.7149 17.9192 47.0181 18.7259 48.3279 21.4142C48.5348 21.8371 48.6672 22.3004 48.7957 22.7571C48.9859 23.4324 49.0605 23.4819 49.7443 23.262C49.8278 23.2346 49.9127 23.2125 50.0052 23.1891L50.2905 22.2535C50.0502 22.29 49.824 22.3251 49.5849 22.3615" fill="#89ADA1"/>
<path d="M64.4945 30.6099C64.1732 28.7466 63.0704 27.5651 61.2799 27.0914C60.6579 26.9275 59.9882 26.9496 59.262 26.878C58.4831 25.1045 57.1965 23.72 55.3713 22.8716L55.1747 23.7291C55.2274 23.7473 55.2685 23.7629 55.3071 23.7837C56.7466 24.5332 57.7723 25.6757 58.4407 27.1591C58.7659 27.88 58.7633 27.8813 59.5255 27.7993C59.627 27.7889 59.7286 27.7733 59.8314 27.7694C60.8802 27.7225 61.8159 28.0231 62.6012 28.7362C63.5999 29.6431 63.9611 31.1174 63.4971 32.3093C63.0305 33.5051 62.1822 34.0191 60.6617 34.0204C58.4908 34.023 56.3212 34.023 54.1516 34.023C53.9883 34.023 53.8238 34.0191 53.6606 34.0334C53.4228 34.0543 53.2531 34.2104 53.2853 34.4342C53.3058 34.5774 53.4704 34.7335 53.6079 34.8168C53.7171 34.8831 53.8868 34.8597 54.0282 34.8597C56.3418 34.8597 58.6553 34.8675 60.9689 34.8532C61.3532 34.8506 61.7504 34.8038 62.118 34.6932C63.722 34.2117 64.7991 32.3653 64.4958 30.6086" fill="#89ADA1"/>
<path d="M59.6412 13.0864C59.546 13.0539 59.4407 13.0448 59.3404 13.037C58.6052 12.9823 57.87 12.9355 57.1361 12.8782C56.7106 12.847 56.2852 12.804 55.87 12.7663C55.5153 11.8568 55.1798 10.9888 54.8379 10.1248C54.7313 9.85548 54.6297 9.58092 54.4858 9.33239C54.2917 8.99537 53.9613 9.00318 53.766 9.3402C53.6529 9.53538 53.5783 9.75398 53.4935 9.96348C53.113 10.8978 52.7352 11.832 52.3496 12.7819C51.2776 12.8639 50.2378 12.942 49.198 13.0226C49.0347 13.0357 48.8676 13.0357 48.7108 13.076C48.261 13.1918 48.171 13.5119 48.4923 13.845C48.635 13.9921 48.7982 14.1196 48.9563 14.251C49.716 14.8782 50.4769 15.5028 51.2506 16.1391C50.964 17.2087 50.6787 18.2653 50.401 19.3232C50.1658 20.221 50.2378 20.3134 51.1555 20.2483C51.1298 20.3446 51.0951 20.4721 51.0552 20.6205C50.8162 21.5001 50.3766 23.0993 50.3766 23.0993C50.3792 23.0993 50.383 23.0967 50.3856 23.0967C50.2841 23.4988 50.2108 23.8163 50.1234 24.1299C48.9486 28.3601 47.5322 32.5071 45.9641 36.602C45.8973 36.7764 45.8073 36.9508 45.7957 37.1303C45.788 37.2462 45.8806 37.4465 45.968 37.4739C46.0926 37.5116 46.2932 37.4661 46.3908 37.3776C46.5014 37.2761 46.5399 37.09 46.5991 36.9352C46.8548 36.2624 47.108 35.5884 47.3664 34.8988C48.6851 34.7673 49.9614 34.6398 51.2879 34.5084C51.2468 34.6997 51.2301 34.8194 51.1966 34.9313C50.9653 35.7042 50.7301 36.4758 50.4974 37.2488C50.4563 37.3867 50.3895 37.535 50.4087 37.6677C50.4254 37.7888 50.5257 37.9566 50.6247 37.9891C50.7236 38.0204 50.8997 37.9397 50.9833 37.8512C51.0745 37.7536 51.1067 37.5949 51.1529 37.4583C51.3277 36.9274 51.5013 36.3965 51.6683 35.8643C52.8714 32.0335 53.8572 28.1428 54.8431 24.2522C54.8585 24.1884 55.3225 22.1 55.6451 20.6205C55.7634 20.0792 55.8623 19.6198 55.915 19.37C56.3276 19.638 56.6824 19.871 57.041 20.0987C57.2633 20.2392 57.4895 20.437 57.762 20.2119C57.9998 20.0154 57.9086 19.7682 57.8404 19.5248C57.6245 18.7467 57.4137 17.9686 57.2042 17.1905C57.1078 16.8339 57.0217 16.4761 56.9304 16.1117C57.7775 15.4351 58.5949 14.7819 59.4124 14.1274C59.5563 14.0116 59.7119 13.9036 59.8327 13.7656C60.0666 13.4963 59.9805 13.2061 59.6424 13.0877M51.5732 33.7563C50.2661 33.8825 49.0309 34.0022 47.7378 34.1271C47.7584 33.9736 47.7558 33.8578 47.7905 33.755C48.0001 33.1291 48.2301 32.5097 48.4281 31.8812C48.5065 31.634 48.617 31.4935 48.8869 31.4752C49.9833 31.4037 51.0784 31.3217 52.2802 31.2358C52.0347 32.1102 51.811 32.9105 51.5732 33.7563ZM52.4742 30.4889C51.2622 30.5813 50.0913 30.6711 48.8381 30.7661C49.1067 29.9437 49.3484 29.2059 49.6028 28.4291C50.7635 28.3081 51.9113 28.1884 53.1259 28.0621C52.8971 28.9157 52.6902 29.6874 52.4755 30.4889M53.3123 27.2996C52.1786 27.4311 51.0527 27.5612 49.8291 27.7017C50.0746 26.8715 50.2956 26.1259 50.5193 25.3699C51.6465 25.2814 52.7352 25.1956 53.8919 25.1045C53.6901 25.8683 53.5089 26.5592 53.3123 27.3009M54.1837 23.8384V23.841C54.1451 23.9997 54.1092 24.1559 54.068 24.3263C52.9871 24.433 51.9164 24.5397 50.7391 24.6569C50.9511 23.8553 51.1427 23.1318 51.3406 22.3862C52.4151 22.3095 53.4511 22.2353 54.541 22.1559C54.5282 22.2912 54.2184 23.6926 54.1837 23.8384ZM54.7608 21.3921C53.6953 21.4832 52.6683 21.5704 51.5552 21.664C51.6388 21.2997 51.7159 20.9549 51.793 20.6205C51.865 20.3069 51.9357 20.0037 52.0115 19.6992C52.0334 19.6107 52.1156 19.5196 52.194 19.465C52.8148 19.0369 53.4408 18.6179 54.0899 18.1807C54.5153 18.4539 54.8739 18.6856 55.2827 18.9484C55.1644 19.5027 55.0449 20.0544 54.9241 20.6205C54.8701 20.8742 54.8148 21.1305 54.7595 21.3921M58.262 14.1807C57.6849 14.6427 57.0988 15.0942 56.523 15.5587C56.1091 15.8918 56.1091 15.9244 56.2646 16.4553C56.5243 17.3427 56.7788 18.2301 56.9471 19.1956C56.7158 19.0486 56.4831 18.9016 56.2518 18.7519C55.667 18.3733 55.0783 17.9998 54.4986 17.6107C54.203 17.413 53.9434 17.4286 53.6542 17.6329C53.0334 18.0688 52.3997 18.4865 51.7686 18.9094C51.6015 19.0213 51.4254 19.1215 51.1825 19.2711C51.2146 19.0603 51.2223 18.925 51.257 18.7988C51.464 18.0636 51.6504 17.3193 51.8997 16.5997C52.0681 16.1156 51.9987 15.7851 51.5797 15.4793C51.0347 15.0786 50.5244 14.6284 50.0013 14.1976C49.8496 14.0727 49.707 13.9361 49.473 13.7253C50.3149 13.6589 51.0385 13.6004 51.7635 13.547C51.9473 13.534 52.1311 13.5262 52.3149 13.5314C52.694 13.5418 52.9074 13.3675 53.0411 13.0031C53.3598 12.1326 53.7133 11.2751 54.095 10.3044C54.2274 10.5829 54.329 10.7702 54.4074 10.9654C54.6721 11.6147 54.9523 12.2601 55.1785 12.9238C55.3302 13.3688 55.5976 13.5275 56.0436 13.5405C56.8405 13.5627 57.6348 13.6264 58.4304 13.6759C58.5049 13.6798 58.5795 13.6967 58.7697 13.7227C58.5486 13.9231 58.4124 14.0623 58.2607 14.182" fill="#BE968E"/>
</svg>
